<svg id="Capa_1" enable-background="new 0 0 512 512" height="512" viewBox="0 0 512 512" width="512" xmlns="http://www.w3.org/2000/svg"><g><circle cx="256" cy="256" fill="#6d36ab" r="256"/><path d="m253.199 129.8-1.811 9.698-107.648-59.238-9.884-3.565 108.919 108.919-29.364 157.228-25.709 41.798-54.397-12.804 25.313 25.313-77.696 28.971 57.138 57.138c35.298 18.356 75.404 28.742 117.94 28.742 141.385 0 256-114.615 256-256 0-17.607-1.78-34.798-5.165-51.405l-133.112-133.112z" fill="#4b1b7a"/><g><path d="m328.458 371.834-57.382 75.26h-17.877l-8.619-37.63 8.619-37.63z" fill="#fa5d0f"/><path d="m177.94 371.834 57.382 75.26h17.877v-75.26z" fill="#fe6a16"/></g><g><path d="m166.246 257.764 86.953-124.632c74.838 0 128.187 124.632 128.187 124.632l-28.691 90.618c-27.508 33.127-66.225 55.764-99.496 55.764z" fill="#fc0"/><path d="m122.206 257.753s56.154-124.621 130.993-124.621v271.014c-33.124 0-71.644-22.436-99.129-55.322z" fill="#fd5"/></g><g><path d="m117.692 257.764c0 32.931 14.788 65.221 36.385 91.061 31.368-25.339 51.435-64.11 51.435-107.575 0-32.898-11.501-63.106-30.691-86.84-34.571 21.399-57.129 57.72-57.129 103.354z" fill="#fe6a16"/><path d="m388.706 257.764c0 32.931-14.788 65.221-36.385 91.061-31.368-25.339-51.435-64.11-51.435-107.575 0-32.898 11.501-63.106 30.691-86.84 34.571 21.399 57.129 57.72 57.129 103.354z" fill="#fa5d0f"/></g><g><path d="m173.134 169.128 80.065-114.759c68.91 0 124.773 45.849 124.773 114.759s-124.773 134.787-124.773 134.787z" fill="#fe6a16"/><path d="m128.426 169.128c0-68.91 55.863-114.759 124.773-114.759v249.546s-124.773-65.877-124.773-134.787z" fill="#fe8205"/></g><g><path d="m253.199 157.462c0 28.776-23.327 52.103-52.103 52.103s-52.103-23.327-52.103-52.103 23.327-52.103 52.103-52.103z" fill="#fd5"/><path d="m253.199 157.462c0 28.776 23.327 52.103 52.103 52.103s52.103-23.327 52.103-52.103-23.327-52.103-52.103-52.103z" fill="#fc0"/></g><g><path d="m253.199 165.977-119.343-89.283c-2.807-2.1-.131-6.442 3.007-4.878l116.336 57.984 13.713 18.084z" fill="#ff5b5b"/><path d="m253.199 165.977 119.343-89.283c2.807-2.1.131-6.442-3.007-4.878l-116.336 57.984z" fill="#ff3939"/></g><g><path d="m262.56 178.297-9.361 27.719s-18.722-15.366-18.722-28.773c0-13.408 8.382-19.78 18.722-19.78z" fill="#4b5055"/><path d="m271.921 177.242c0 13.408-18.722 28.773-18.722 28.773v-48.554c10.34.001 18.722 6.374 18.722 19.781z" fill="#373c41"/></g><g><circle cx="200.265" cy="160.367" fill="#4b5055" r="10.283"/><circle cx="306.132" cy="160.367" fill="#373c41" r="10.283"/></g><path d="m253.199 385.114-8.619 16.301 8.619 7.38 115.728-10.425 66.898 22.158 26.107-35.292-89.171-25.716z" fill="#696e73"/><path d="m253.199 385.114-13.773 2.948-104.997-25.742-1.124 9.514 36.578 13.396-92.404 35.135 3.443 5.755 113.333-31.964 43.715 16.011 15.229-1.372z" fill="#bec3d2"/></g></svg>